# xmcd
#
# Track frame offsets: 
#        150
#        168885
#        263415
#
# Disc length: 4509 seconds
#
# Revision: 2
# Processed by: cddbd v1.5.2PL0 Copyright (c) Steve Scherf et al.
# Submitted via: ExactAudioCopyFreeDBPlugin 1.0
#
DISCID=17119b03
DTITLE=Various Artist - Smirnoff Experience, The (M8 magazine)
DYEAR=1998
DGENRE=Dance
TTITLE0=George Bowie - Smirnoff mix
TTITLE1=Simon Foy - Tin Tin mix
TTITLE2=CJ Mackintosh - Colours mix
EXTD=
EXTT0=
EXTT1=
EXTT2=
PLAYORDER=
